G04 DipTrace 3.2.0.1*
G04 BottomSilk.gbr*
%MOIN*%
G04 #@! TF.FileFunction,Legend,Bot*
G04 #@! TF.Part,Single*
%ADD10C,0.009843*%
%ADD52C,0.00772*%
%FSLAX26Y26*%
G04*
G70*
G90*
G75*
G01*
G04 BotSilk*
%LPD*%
X1466537Y2047244D2*
D10*
G02X1466537Y2047244I147636J0D01*
G01*
X1978346Y2047297D2*
G03X1250000Y2047297I-364173J-53D01*
G01*
X1978346D2*
Y1338583D1*
X1250000Y2047297D2*
Y1338583D1*
X1978346D2*
X1250000D1*
X679136Y2362204D2*
G02X679136Y2362204I147636J0D01*
G01*
X1190945Y2362258D2*
G03X462598Y2362258I-364173J-53D01*
G01*
X1190945D2*
Y1653543D1*
X462598Y2362258D2*
Y1653543D1*
X1190945D2*
X462598D1*
X2253939Y2362204D2*
G02X2253939Y2362204I147636J0D01*
G01*
X2765748Y2362258D2*
G03X2037402Y2362258I-364173J-53D01*
G01*
X2765748D2*
Y1653543D1*
X2037402Y2362258D2*
Y1653543D1*
X2765748D2*
X2037402D1*
X1681041Y1279606D2*
D52*
X1659541D1*
X1652356Y1282038D1*
X1649924Y1284415D1*
X1647547Y1289168D1*
Y1293976D1*
X1649924Y1298730D1*
X1652356Y1301161D1*
X1659541Y1303538D1*
X1681041D1*
Y1253298D1*
X1664294Y1279606D2*
X1647547Y1253298D1*
X1629676Y1291545D2*
Y1293921D1*
X1627300Y1298730D1*
X1624923Y1301106D1*
X1620115Y1303483D1*
X1610553D1*
X1605800Y1301106D1*
X1603423Y1298730D1*
X1600991Y1293921D1*
Y1289168D1*
X1603423Y1284360D1*
X1608176Y1277230D1*
X1632108Y1253298D1*
X1598615D1*
X1559244D2*
Y1303483D1*
X1583176Y1270045D1*
X1547306D1*
X892451Y1594567D2*
X870951D1*
X863766Y1596999D1*
X861334Y1599375D1*
X858958Y1604129D1*
Y1608937D1*
X861334Y1613690D1*
X863766Y1616122D1*
X870951Y1618499D1*
X892451D1*
Y1568259D1*
X875704Y1594567D2*
X858958Y1568259D1*
X841086Y1606505D2*
Y1608882D1*
X838710Y1613690D1*
X836333Y1616067D1*
X831525Y1618443D1*
X821963D1*
X817210Y1616067D1*
X814833Y1613690D1*
X812402Y1608882D1*
Y1604129D1*
X814833Y1599320D1*
X819587Y1592190D1*
X843518Y1568259D1*
X810025D1*
X765901Y1618443D2*
X789777D1*
X792154Y1596944D1*
X789777Y1599320D1*
X782592Y1601752D1*
X775462D1*
X768277Y1599320D1*
X763469Y1594567D1*
X761092Y1587382D1*
Y1582629D1*
X763469Y1575444D1*
X768277Y1570635D1*
X775462Y1568259D1*
X782592D1*
X789777Y1570635D1*
X792154Y1573067D1*
X794586Y1577820D1*
X2466038Y1594567D2*
X2444538D1*
X2437353Y1596999D1*
X2434921Y1599375D1*
X2432545Y1604129D1*
Y1608937D1*
X2434921Y1613690D1*
X2437353Y1616122D1*
X2444538Y1618499D1*
X2466038D1*
Y1568259D1*
X2449291Y1594567D2*
X2432545Y1568259D1*
X2414674Y1606505D2*
Y1608882D1*
X2412297Y1613690D1*
X2409921Y1616067D1*
X2405112Y1618443D1*
X2395550D1*
X2390797Y1616067D1*
X2388421Y1613690D1*
X2385989Y1608882D1*
Y1604129D1*
X2388421Y1599320D1*
X2393174Y1592190D1*
X2417106Y1568259D1*
X2383612D1*
X2339488Y1611314D2*
X2341865Y1616067D1*
X2349050Y1618443D1*
X2353803D1*
X2360988Y1616067D1*
X2365796Y1608882D1*
X2368173Y1596944D1*
Y1585005D1*
X2365796Y1575444D1*
X2360988Y1570635D1*
X2353803Y1568259D1*
X2351426D1*
X2344297Y1570635D1*
X2339488Y1575444D1*
X2337111Y1582629D1*
Y1585005D1*
X2339488Y1592190D1*
X2344297Y1596944D1*
X2351426Y1599320D1*
X2353803D1*
X2360988Y1596944D1*
X2365796Y1592190D1*
X2368173Y1585005D1*
M02*
