M48
INCH
T01C0.0191
T02C0.0276
T03C0.0394
T04C0.0551
%
T01
X+008957Y+018012
X+007283Y+017913
X+005315Y+018209
X+009350Y+016339
X+012894Y+013780
X+014469Y+011319
X+017421Y+009744
X+018701Y+009252
X+016929Y+007382
X+013484Y+007087
X+020472Y+007185
X+023524Y+011516
X+022736Y+013484
X+021882Y+014075
X+024606Y+015453
X+019980Y+018110
X+018406Y+018110
X+018406Y+016634
X+015157Y+016831
X+015354Y+018110
X+014272Y+018012
X+013583Y+021555
X+020669Y+021949
X+025689Y+020866
T02
X+026161Y+022343
X+026661Y+022343
X+027161Y+022343
X+016925Y+021063
X+016425Y+021063
X+015925Y+021063
X+015138Y+007299
X+015138Y+006799
X+015138Y+006299
X+022224Y+006319
X+022224Y+006819
X+022224Y+007319
T03
X+007480Y+023622
X+010630Y+023622
X+005118Y+014961
X+005118Y+013386
X+005886Y+009055
X+007461Y+009055
X+007461Y+007480
X+009035Y+007480
X+009035Y+009055
X+009035Y+005906
X+007461Y+005906
X+005886Y+005906
X+005886Y+007480
X+027165Y+013386
X+027165Y+014961
T04
X+014567Y+023228
X+018406Y+023327
X+022047Y+017323
X+024016Y+017323
X+025984Y+017323
X+018110Y+014173
X+016142Y+014173
X+014173Y+014173
X+010236Y+017323
X+008268Y+017323
X+006299Y+017323
T00
M30
