G04 DipTrace 3.2.0.1*
G04 TopPaste.gbr*
%MOIN*%
G04 #@! TF.FileFunction,Paste,Top*
G04 #@! TF.Part,Single*
%ADD43R,0.055118X0.023622*%
%ADD45R,0.043307X0.051181*%
%ADD47R,0.051181X0.043307*%
%ADD49R,0.062992X0.055118*%
%ADD51R,0.055118X0.062992*%
%FSLAX26Y26*%
G04*
G70*
G90*
G75*
G01*
G04 TopPaste*
%LPD*%
D51*
X738189Y1870079D3*
X848425D3*
X2185039Y1889764D3*
X2295276D3*
Y1988189D3*
X2185039D3*
X1064961Y1870079D3*
X954724D3*
D49*
X1543307Y1190945D3*
Y1301181D3*
D47*
X1346457Y1062992D3*
Y988189D3*
X2045276Y1072835D3*
Y998031D3*
D45*
X2710630Y1889764D3*
X2635827D3*
D49*
X1946850Y649606D3*
Y539370D3*
X1346457Y647638D3*
Y537402D3*
D45*
X2419291Y2086614D3*
X2494094D3*
X972441Y1968504D3*
X1047244D3*
X1263780Y1870079D3*
X1188976D3*
D47*
X2251969Y998031D3*
Y1072835D3*
X2055118Y570866D3*
Y645669D3*
X1248031Y1190945D3*
Y1265748D3*
Y574803D3*
Y649606D3*
D43*
X1946850Y1102362D3*
Y968504D3*
Y751969D3*
Y885827D3*
X1248031Y1092520D3*
Y958661D3*
Y742126D3*
Y875984D3*
D47*
X590551Y2322835D3*
Y2397638D3*
D45*
X755906Y1968504D3*
X830709D3*
X2494094Y1988189D3*
X2419291D3*
X2281496Y2106299D3*
X2206693D3*
D51*
X2728346Y1988189D3*
X2618110D3*
D45*
X2061024Y1889764D3*
X1986220D3*
X2061024Y1988189D3*
X1986220D3*
X2419291Y1889764D3*
X2494094D3*
X1188976Y1968504D3*
X1263780D3*
D49*
X2370079Y1090551D3*
Y980315D3*
D47*
X2045276Y856299D3*
Y781496D3*
Y1214567D3*
Y1289370D3*
D45*
X1405512Y1968504D3*
X1480315D3*
X1047244Y2066929D3*
X972441D3*
D47*
X2143701Y1072835D3*
Y998031D3*
Y1289370D3*
Y1214567D3*
X1444882Y1062992D3*
Y988189D3*
X1346457Y846457D3*
Y771654D3*
X1435039Y1269685D3*
Y1194882D3*
X1346457Y1269685D3*
Y1194882D3*
D49*
X1543307Y1080709D3*
Y970472D3*
D51*
X1171260Y2066929D3*
X1281496D3*
D45*
X1480315Y1870079D3*
X1405512D3*
M02*
